<?xml version="1.0" encoding="UTF-8"?>
<!DOCTYPE svg PUBLIC "-//W3C//DTD SVG 1.1//EN" "http://www.w3.org/Graphics/SVG/1.1/DTD/svg11.dtd">
<svg xmlns="http://www.w3.org/2000/svg" xml:space="preserve" width="1024px" height="1024px" shape-rendering="geometricPrecision" text-rendering="geometricPrecision" image-rendering="optimizeQuality" fill-rule="nonzero" clip-rule="evenodd" viewBox="0 0 10240 10240" xmlns:xlink="http://www.w3.org/1999/xlink">
	<title>cube_molecule icon</title>
	<desc>cube_molecule icon from the IconExperience.com O-Collection. Copyright by INCORS GmbH (www.incors.com).</desc>
	<path id="curve1" fill="#FFFFFF" d="M1600 4735l3 1c102,36 209,54 317,54 108,0 215,-18 317,-54l3 -1 0 2680 10 3 0 262c0,58 -52,99 -99,122 -69,35 -155,48 -231,48 -76,0 -162,-13 -231,-48 -47,-23 -99,-64 -99,-122l0 -262 10 -3 0 -2680zm5450 -1998l404 -403 -5 -10 318 -317c129,-129 337,-129 466,0 129,129 129,337 0,466l-317 318 -10 -5 -403 404c-110,-187 -266,-343 -453,-453zm-4480 0l404 -403 -5 -10 318 -317c129,-129 337,-129 466,0 129,129 129,337 0,466l-317 318 -10 -5 -403 404c-110,-187 -266,-343 -453,-453zm4855 -1137l-1 3c-36,102 -54,209 -54,317 0,108 18,215 54,317l1 3 -2680 0 -3 10 -262 0c-58,0 -99,-52 -122,-99 -35,-69 -48,-155 -48,-231 0,-76 13,-162 48,-231 23,-47 64,-99 122,-99l262 0 3 10 2680 0zm575 1215l3 1c102,36 209,54 317,54 108,0 215,-18 317,-54l3 -1 0 2680 10 3 0 262c0,58 -52,99 -99,122 -69,35 -155,48 -231,48 -76,0 -162,-13 -231,-48 -47,-23 -99,-64 -99,-122l0 -262 10 -3 0 -2680zm-950 4402l404 -403 -5 -10 318 -317c129,-129 337,-129 466,0 129,129 129,337 0,466l-317 318 -10 -5 -403 404c-110,-187 -266,-343 -453,-453zm-3530 -4402l3 1c102,36 209,54 317,54 108,0 215,-18 317,-54l3 -1 0 385 -640 0 0 -385zm640 2680l10 3 0 262c0,58 -52,99 -99,122 -69,35 -155,48 -231,48 -76,0 -162,-13 -231,-48 -47,-23 -99,-64 -99,-122l0 -262 10 -3 0 -1015 640 0 0 1015zm-1590 1722l404 -403 -5 -10 318 -317c129,-129 337,-129 466,0 129,129 129,337 0,466l-317 318 -10 -5 -403 404c-110,-187 -266,-343 -453,-453zm2168 -1158l1022 0 0 640 -1008 0 -3 10 -271 0c-58,0 -99,-52 -122,-99 -35,-69 -48,-154 -48,-231 0,-76 13,-161 48,-230 23,-47 64,-100 122,-100l256 0 4 10zm2302 0l393 0 -1 4c-41,108 -62,222 -62,337 0,101 16,201 47,296l1 3 -378 0 0 -640zm-1535 -2539l-1 3c-36,102 -54,209 -54,317 0,108 18,215 54,317l1 3 -2680 0 -3 10 -262 0c-58,0 -99,-52 -122,-99 -35,-69 -48,-155 -48,-231 0,-76 13,-162 48,-231 23,-47 64,-99 122,-99l262 0 3 10 2680 0zm573 1214l3 1c103,37 210,55 319,55 107,0 213,-18 315,-53l3 -2 0 2679 10 3 0 263c0,58 -53,99 -99,122 -69,35 -155,48 -231,48 -77,0 -162,-13 -231,-48 -47,-23 -99,-64 -99,-122l0 -261 10 -4 0 -2681zm-573 3266l-1 3c-36,102 -54,209 -54,317 0,108 18,215 54,317l1 3 -2680 0 -3 10 -262 0c-58,0 -99,-52 -122,-99 -35,-69 -48,-155 -48,-231 0,-76 13,-162 48,-231 23,-47 64,-99 122,-99l262 0 3 10 2680 0z"/>
	<path id="curve0" fill="#FFFFFF" d="M8320 960c530,0 960,430 960,960 0,530 -430,960 -960,960 -148,0 -289,-34 -414,-94l320 -320c125,-125 125,-327 0,-452 -125,-125 -327,-125 -452,0l-320 320c-60,-125 -94,-266 -94,-414 0,-530 430,-960 960,-960zm-6080 6455c273,96 489,312 585,585l-265 0c-88,0 -160,143 -160,320 0,177 72,320 160,320l265 0c-131,373 -487,640 -905,640 -530,0 -960,-430 -960,-960 0,-418 267,-773 640,-905l0 265 0 0c0,88 143,160 320,160 177,0 320,-72 320,-160l0 -265zm4478 -1c374,131 642,487 642,906 0,530 -430,960 -960,960 -530,0 -960,-430 -960,-960 0,-417 266,-772 638,-905l0 265 0 0c0,88 143,160 320,160 177,0 320,-72 320,-160l0 0 0 -266zm-4798 -4534c418,0 774,267 905,640l-265 0c-88,0 -160,143 -160,320 0,177 72,320 160,320l265 0c-131,373 -487,640 -905,640 -530,0 -960,-430 -960,-960 0,-530 430,-960 960,-960zm4480 0c530,0 960,430 960,960 0,530 -430,960 -960,960 -530,0 -960,-430 -960,-960 0,-530 430,-960 960,-960zm-2240 2615c266,94 478,301 578,564l-260 0c-89,0 -160,144 -160,320 0,177 71,320 160,320l274 0c-125,384 -486,661 -912,661 -148,0 -289,-34 -414,-94l320 -320c125,-125 125,-327 0,-452 -125,-125 -327,-125 -452,0l-320 320c-60,-125 -94,-266 -94,-414 0,-418 267,-773 640,-905l0 265 0 0c0,88 143,160 320,160 177,0 320,-72 320,-160l0 0 0 -265zm4480 0c373,132 640,487 640,905 0,530 -430,960 -960,960 -148,0 -289,-34 -414,-94l320 -320c125,-125 125,-327 0,-452 -125,-125 -327,-125 -452,0l-320 320c-60,-125 -94,-266 -94,-414 0,-418 267,-773 640,-905l0 265 0 0c0,88 143,160 320,160 177,0 320,-72 320,-160l0 0 0 -265zm-4800 -4535c418,0 774,267 905,640l-265 0c-88,0 -160,143 -160,320 0,177 72,320 160,320l265 0c-132,373 -487,640 -905,640 -148,0 -289,-34 -414,-94l320 -320c125,-125 125,-327 0,-452 -125,-125 -327,-125 -452,0l-320 320c-60,-125 -94,-266 -94,-414 0,-530 430,-960 960,-960z"/>
</svg>
